<svg width="24" height="24" viewBox="0 0 24 24" fill="none" xmlns="http://www.w3.org/2000/svg">
<path d="M10.4211 4C11.5378 4 12.6087 4.42143 13.3983 5.17157C14.188 5.92172 14.6316 6.93913 14.6316 8C14.6316 9.06087 14.188 10.0783 13.3983 10.8284C12.6087 11.5786 11.5378 12 10.4211 12C9.30435 12 8.23339 11.5786 7.44376 10.8284C6.65413 10.0783 6.21053 9.06087 6.21053 8C6.21053 6.93913 6.65413 5.92172 7.44376 5.17157C8.23339 4.42143 9.30435 4 10.4211 4ZM10.4211 6C9.8627 6 9.32722 6.21071 8.93241 6.58579C8.53759 6.96086 8.31579 7.46957 8.31579 8C8.31579 8.53043 8.53759 9.03914 8.93241 9.41421C9.32722 9.78929 9.8627 10 10.4211 10C10.9794 10 11.5149 9.78929 11.9097 9.41421C12.3045 9.03914 12.5263 8.53043 12.5263 8C12.5263 7.46957 12.3045 6.96086 11.9097 6.58579C11.5149 6.21071 10.9794 6 10.4211 6ZM10.4211 13C11.5789 13 13.2211 13.23 14.7474 13.69C14.1053 14.07 13.5789 14.6 13.1684 15.23C12.3053 15.03 11.3579 14.9 10.4211 14.9C7.29474 14.9 4 16.36 4 17V18.1H12.5684C12.6632 18.8 12.9263 19.44 13.3263 20H2V17C2 14.34 7.61053 13 10.4211 13ZM18.3158 10H22V12H19.8947V17.5C19.8947 18.163 19.6175 18.7989 19.124 19.2678C18.6304 19.7366 17.9611 20 17.2632 20C16.5652 20 15.8959 19.7366 15.4024 19.2678C14.9088 18.7989 14.6316 18.163 14.6316 17.5C14.6316 16.837 14.9088 16.2011 15.4024 15.7322C15.8959 15.2634 16.5652 15 17.2632 15C17.6421 15 17.9895 15.07 18.3158 15.21V10Z" fill="white" fill-opacity="0.75"/>
</svg>
