<svg width="16" height="16" viewBox="0 0 16 16" fill="none" xmlns="http://www.w3.org/2000/svg">
<mask id="mask0_1_2736" style="mask-type:alpha" maskUnits="userSpaceOnUse" x="0" y="0" width="16" height="16">
<rect width="16" height="16" fill="#D9D9D9"/>
</mask>
<g mask="url(#mask0_1_2736)">
<path d="M13.3335 13.3333H10.0002C10.0002 13.1111 9.99183 12.8888 9.97516 12.6666C9.9585 12.4444 9.9335 12.2222 9.90016 12H13.3335V3.99996H2.66683V4.76663C2.44461 4.73329 2.22238 4.70829 2.00016 4.69163C1.77794 4.67496 1.55572 4.66663 1.3335 4.66663V3.99996C1.3335 3.63329 1.46405 3.3194 1.72516 3.05829C1.98627 2.79718 2.30016 2.66663 2.66683 2.66663H13.3335C13.7002 2.66663 14.0141 2.79718 14.2752 3.05829C14.5363 3.3194 14.6668 3.63329 14.6668 3.99996V12C14.6668 12.3666 14.5363 12.6805 14.2752 12.9416C14.0141 13.2027 13.7002 13.3333 13.3335 13.3333ZM1.3335 13.3333V11.3333C1.88905 11.3333 2.36127 11.5277 2.75016 11.9166C3.13905 12.3055 3.3335 12.7777 3.3335 13.3333H1.3335ZM4.66683 13.3333C4.66683 12.4111 4.34183 11.625 3.69183 10.975C3.04183 10.325 2.25572 9.99996 1.3335 9.99996V8.66663C2.6335 8.66663 3.73627 9.1194 4.64183 10.025C5.54738 10.9305 6.00016 12.0333 6.00016 13.3333H4.66683ZM7.3335 13.3333C7.3335 12.5 7.17516 11.7194 6.8585 10.9916C6.54183 10.2638 6.11405 9.63051 5.57516 9.09163C5.03627 8.55274 4.40294 8.12496 3.67516 7.80829C2.94738 7.49163 2.16683 7.33329 1.3335 7.33329V5.99996C2.34461 5.99996 3.29461 6.19163 4.1835 6.57496C5.07238 6.95829 5.85016 7.48329 6.51683 8.14996C7.1835 8.81663 7.7085 9.5944 8.09183 10.4833C8.47516 11.3722 8.66683 12.3222 8.66683 13.3333H7.3335Z" fill="white" fill-opacity="0.75"/>
</g>
</svg>
