<svg width="20" height="20" viewBox="0 0 20 20" fill="none" xmlns="http://www.w3.org/2000/svg">
<path d="M5.00001 15H15V13.4211H5.00001V15ZM10 11.7409L13.8461 7.89473L12.7368 6.78544L10.7894 8.70045V3.94738H9.21055V8.70045L7.26315 6.78544L6.15386 7.89473L10 11.7409ZM10.0018 20C8.61867 20 7.31863 19.7375 6.10165 19.2126C4.88464 18.6877 3.82603 17.9753 2.9258 17.0755C2.02555 16.1757 1.31285 15.1175 0.787713 13.9011C0.262571 12.6846 0 11.3849 0 10.0018C0 8.61867 0.262457 7.31863 0.787371 6.10165C1.31228 4.88464 2.02465 3.82603 2.92448 2.9258C3.82433 2.02555 4.88248 1.31286 6.09894 0.787714C7.31538 0.262572 8.61514 0 9.99824 0C11.3813 0 12.6814 0.262458 13.8984 0.787372C15.1154 1.31229 16.174 2.02465 17.0742 2.92448C17.9745 3.82433 18.6871 4.88248 19.2123 6.09894C19.7374 7.31538 20 8.61515 20 9.99824C20 11.3813 19.7375 12.6814 19.2126 13.8984C18.6877 15.1154 17.9753 16.174 17.0755 17.0742C16.1757 17.9745 15.1175 18.6871 13.9011 19.2123C12.6846 19.7374 11.3849 20 10.0018 20ZM10 18.4211C12.3509 18.4211 14.3421 17.6053 15.9737 15.9737C17.6053 14.3421 18.4211 12.3509 18.4211 10C18.4211 7.64912 17.6053 5.65788 15.9737 4.0263C14.3421 2.39472 12.3509 1.57893 10 1.57893C7.64912 1.57893 5.65788 2.39472 4.0263 4.0263C2.39472 5.65788 1.57893 7.64912 1.57893 10C1.57893 12.3509 2.39472 14.3421 4.0263 15.9737C5.65788 17.6053 7.64912 18.4211 10 18.4211Z" fill="white" fill-opacity="0.75"/>
</svg>
