<svg width="22" height="20" viewBox="0 0 22 20" fill="none" xmlns="http://www.w3.org/2000/svg">
<path d="M16.4837 13.5948C15.2904 14.7772 13.7737 16.1903 11.9302 17.8361C11.9298 17.8364 11.9294 17.8368 11.929 17.8371L11 18.6624L10.071 17.8371C10.0707 17.8369 10.0705 17.8367 10.0702 17.8364C8.22655 16.1905 6.70971 14.7772 5.51634 13.5948C4.32768 12.4171 3.40128 11.3783 2.7251 10.4764C2.0481 9.57343 1.60829 8.78641 1.36847 8.11188C1.12195 7.41849 1 6.71426 1 5.99455C1 4.5389 1.48122 3.37335 2.43634 2.42698C3.392 1.48008 4.57279 1 6.05 1C6.85856 1 7.62243 1.16838 8.35176 1.50663C9.0826 1.8456 9.71005 2.321 10.241 2.93993L11 3.82468L11.759 2.93993C12.2899 2.321 12.9174 1.8456 13.6482 1.50663C14.3776 1.16838 15.1414 1 15.95 1C17.4272 1 18.608 1.48008 19.5637 2.42698C20.5188 3.37335 21 4.5389 21 5.99455C21 6.71426 20.878 7.41849 20.6315 8.11188C20.3917 8.78641 19.9519 9.57343 19.2749 10.4764C18.5987 11.3783 17.6723 12.4171 16.4837 13.5948Z" stroke="white" stroke-opacity="0.75" stroke-width="2"/>
</svg>
