<svg width="56" height="56" viewBox="0 0 56 56" fill="none" xmlns="http://www.w3.org/2000/svg">
<path d="M28.2447 20.64C30.544 20.64 32.095 21.6133 32.9794 22.4267L36.4352 19.12C34.3127 17.1867 31.5508 16 28.2447 16C23.4556 16 19.3195 18.6933 17.3059 22.6133L21.2651 25.6267C22.2583 22.7333 25.0066 20.64 28.2447 20.64Z" fill="#EA4335"/>
<path d="M39.9998 28.2667C39.9998 27.28 39.9181 26.56 39.7413 25.8133H28.2447V30.2667H34.993C34.8569 31.3734 34.1222 33.04 32.4896 34.16L36.3535 37.0934C38.6664 35 39.9998 31.92 39.9998 28.2667Z" fill="#4285F4"/>
<path d="M21.2787 30.3733C21.0202 29.6267 20.8705 28.8267 20.8705 28C20.8705 27.1733 21.0202 26.3734 21.2651 25.6267L17.3059 22.6133C16.476 24.24 15.9998 26.0667 15.9998 28C15.9998 29.9333 16.4759 31.76 17.3059 33.3867L21.2787 30.3733Z" fill="#FBBC05"/>
<path d="M28.2446 40C31.5507 40 34.3263 38.9334 36.3535 37.0934L32.4896 34.16C31.4555 34.8667 30.0678 35.36 28.2446 35.36C25.0065 35.36 22.2583 33.2667 21.2787 30.3733L17.3195 33.3867C19.3331 37.3067 23.4555 40 28.2446 40Z" fill="#34A853"/>
</svg>
