<svg width="48" height="56" viewBox="0 0 48 56" fill="none" xmlns="http://www.w3.org/2000/svg">
<path d="M28.8 17.5C29.2243 17.5 29.6313 17.658 29.9314 17.9393C30.2314 18.2206 30.4 18.6022 30.4 19V37C30.4 37.3978 30.2314 37.7794 29.9314 38.0607C29.6313 38.342 29.2243 38.5 28.8 38.5H19.2C18.7757 38.5 18.3687 38.342 18.0686 38.0607C17.7686 37.7794 17.6 37.3978 17.6 37V19C17.6 18.6022 17.7686 18.2206 18.0686 17.9393C18.3687 17.658 18.7757 17.5 19.2 17.5H28.8ZM19.2 16C18.3513 16 17.5374 16.3161 16.9373 16.8787C16.3371 17.4413 16 18.2044 16 19V37C16 37.7956 16.3371 38.5587 16.9373 39.1213C17.5374 39.6839 18.3513 40 19.2 40H28.8C29.6487 40 30.4626 39.6839 31.0627 39.1213C31.6629 38.5587 32 37.7956 32 37V19C32 18.2044 31.6629 17.4413 31.0627 16.8787C30.4626 16.3161 29.6487 16 28.8 16H19.2Z" fill="white" fill-opacity="0.75"/>
<path d="M23.9999 37C24.4242 37 24.8312 36.842 25.1313 36.5607C25.4313 36.2794 25.5999 35.8978 25.5999 35.5C25.5999 35.1022 25.4313 34.7206 25.1313 34.4393C24.8312 34.158 24.4242 34 23.9999 34C23.5756 34 23.1686 34.158 22.8685 34.4393C22.5685 34.7206 22.3999 35.1022 22.3999 35.5C22.3999 35.8978 22.5685 36.2794 22.8685 36.5607C23.1686 36.842 23.5756 37 23.9999 37Z" fill="white" fill-opacity="0.75"/>
</svg>
