<svg width="32" height="32" viewBox="0 0 32 32" fill="none" xmlns="http://www.w3.org/2000/svg">
<path fill-rule="evenodd" clip-rule="evenodd" d="M5.33325 21.3333V23.4666H26.6666V21.3333H23.9999V17.1653C23.5738 17.275 23.127 17.3333 22.6667 17.3333C19.7211 17.3333 17.3333 14.9455 17.3333 12C17.3333 10.3978 18.0398 8.96059 19.1583 7.98295C18.7893 7.86159 18.4032 7.76058 17.9999 7.67992V6.93325C17.9999 6.48881 17.8055 6.11103 17.4166 5.79992C17.0277 5.48881 16.5555 5.33325 15.9999 5.33325C15.4444 5.33325 14.9721 5.48881 14.5833 5.79992C14.1944 6.11103 13.9999 6.48881 13.9999 6.93325V7.67992C12.2221 8.03547 10.7777 8.78659 9.66659 9.93325C8.55547 11.0799 7.99992 12.391 7.99992 13.8666V21.3333H5.33325ZM21.2235 8.99441C20.1052 9.53235 19.3333 10.676 19.3333 12C19.3333 13.8409 20.8257 15.3333 22.6667 15.3333C23.1407 15.3333 23.5916 15.2344 23.9999 15.056V13.8666C23.9999 12.391 23.4444 11.0799 22.3333 9.93325C21.9944 9.58351 21.6244 9.27056 21.2235 8.99441ZM14.1166 26.0399C14.6388 26.4577 15.2666 26.6666 15.9999 26.6666C16.7333 26.6666 17.361 26.4577 17.8833 26.0399C18.4055 25.6221 18.6666 25.1199 18.6666 24.5333H13.3333C13.3333 25.1199 13.5944 25.6221 14.1166 26.0399Z" fill="white" fill-opacity="0.25"/>
<circle cx="22.6667" cy="12" r="4" fill="white"/>
<circle cx="22.6667" cy="12" r="4" stroke="black"/>
</svg>
