<svg width="24" height="24" viewBox="0 0 24 24" fill="none" xmlns="http://www.w3.org/2000/svg">
<mask id="mask0_1_5891" style="mask-type:alpha" maskUnits="userSpaceOnUse" x="0" y="0" width="24" height="24">
<rect width="24" height="24" fill="#D9D9D9"/>
</mask>
<g mask="url(#mask0_1_5891)">
<path d="M15.6842 20C14.807 20 14.0614 19.6667 13.4474 19C12.8333 18.3333 12.5263 17.5238 12.5263 16.5714C12.5263 15.619 12.8333 14.8095 13.4474 14.1429C14.0614 13.4762 14.807 13.1429 15.6842 13.1429C15.8772 13.1429 16.0614 13.1571 16.2368 13.1857C16.4123 13.2143 16.5789 13.2762 16.7368 13.3714V4H22V6.28571H18.8421V16.5714C18.8421 17.5238 18.5351 18.3333 17.9211 19C17.307 19.6667 16.5614 20 15.6842 20ZM2 15.4286V13.1429H10.4211V15.4286H2ZM2 10.8571V8.57143H14.6316V10.8571H2ZM2 6.28571V4H14.6316V6.28571H2Z" fill="white" fill-opacity="0.75"/>
</g>
</svg>
