<svg width="36" height="36" viewBox="0 0 36 36" fill="none" xmlns="http://www.w3.org/2000/svg">
<mask id="mask0_1_2973" style="mask-type:alpha" maskUnits="userSpaceOnUse" x="0" y="0" width="36" height="36">
<rect width="36" height="36" fill="#D9D9D9"/>
</mask>
<g mask="url(#mask0_1_2973)">
<path d="M24.1027 27.9999C23.2979 27.9999 22.6138 27.7174 22.0504 27.1525C21.487 26.5875 21.2054 25.9015 21.2054 25.0944C21.2054 24.9814 21.2165 24.8505 21.2387 24.7017C21.2609 24.5529 21.2942 24.419 21.3386 24.2999L13.9454 19.9999C13.6845 20.2721 13.3737 20.4902 13.013 20.6541C12.6522 20.818 12.2803 20.8999 11.8973 20.8999C11.0925 20.8999 10.4084 20.618 9.84504 20.0541C9.28168 19.4902 9 18.8055 9 17.9999C9 17.1944 9.28168 16.5096 9.84504 15.9457C10.4084 15.3819 11.0925 15.0999 11.8973 15.0999C12.2803 15.0999 12.6466 15.1735 12.9963 15.3207C13.346 15.468 13.6623 15.6777 13.9454 15.9499L21.3386 11.6832C21.2942 11.5713 21.2609 11.4455 21.2387 11.3056C21.2165 11.1657 21.2054 11.0305 21.2054 10.8999C21.2054 10.0944 21.487 9.40965 22.0504 8.84575C22.6138 8.28187 23.2979 7.99992 24.1027 7.99992C24.9075 7.99992 25.5916 8.28187 26.1549 8.84575C26.7183 9.40965 27 10.0944 27 10.8999C27 11.7055 26.7183 12.3902 26.1549 12.9541C25.5916 13.518 24.9075 13.7999 24.1027 13.7999C23.7158 13.7999 23.3457 13.7346 22.9924 13.6041C22.6392 13.4735 22.3321 13.2721 22.0712 12.9999L14.6781 17.1666C14.7114 17.2888 14.7391 17.4291 14.7613 17.5874C14.7835 17.7458 14.7946 17.8846 14.7946 18.004C14.7946 18.1233 14.7835 18.2469 14.7613 18.3748C14.7391 18.5027 14.7114 18.6277 14.6781 18.7499L22.0712 22.9833C22.3321 22.7444 22.6318 22.5541 22.9704 22.4124C23.309 22.2708 23.6864 22.1999 24.1027 22.1999C24.9075 22.1999 25.5916 22.4819 26.1549 23.0458C26.7183 23.6097 27 24.2944 27 25.0999C27 25.9055 26.7183 26.5902 26.1549 27.1541C25.5916 27.718 24.9075 27.9999 24.1027 27.9999Z" fill="white" fill-opacity="0.75"/>
</g>
</svg>
