<svg width="24" height="20" viewBox="0 0 24 20" fill="none" xmlns="http://www.w3.org/2000/svg">
<path d="M5.14589 0.366749L0.352095 5.3663L0.251299 5.48504C0.0723589 5.72567 -0.016134 6.02605 0.00242374 6.32981C0.0209815 6.63357 0.145314 6.91983 0.352095 7.1349L0.46609 7.23864C0.697106 7.42502 0.985478 7.5172 1.2771 7.49787C1.56872 7.47854 1.84355 7.34903 2.05002 7.13365L4.8003 4.26265V18.7489L4.8087 18.8951C4.84282 19.1994 4.98302 19.48 5.20268 19.6837C5.42234 19.8874 5.70616 19.9999 6.00025 20L6.14065 19.9912C6.43274 19.9554 6.70203 19.8091 6.89736 19.58C7.09269 19.351 7.20046 19.0552 7.2002 18.7489V4.2714L9.95169 7.13365L10.0657 7.23864C10.3069 7.43527 10.6112 7.52837 10.9161 7.49888C11.2211 7.46939 11.5037 7.31953 11.7061 7.08001C11.9084 6.84049 12.0152 6.52945 12.0044 6.2106C11.9937 5.89175 11.8663 5.58924 11.6484 5.36505L6.84142 0.365498L6.72862 0.261758C6.49761 0.0753707 6.20923 -0.0168055 5.91761 0.0025246C5.62599 0.0218547 5.35236 0.151363 5.14589 0.366749ZM17.9997 0.0042804L17.8593 0.0130302C17.5675 0.0488485 17.2983 0.195005 17.103 0.423778C16.9077 0.652551 16.7998 0.94803 16.7998 1.25417V15.7279L14.0483 12.8656L13.9343 12.7606C13.693 12.5663 13.3897 12.475 13.0861 12.5052C12.7825 12.5355 12.5013 12.685 12.2997 12.9235C12.0982 13.1619 11.9913 13.4714 12.001 13.7889C12.0106 14.1064 12.136 14.4083 12.3516 14.633L17.1562 19.6325L17.269 19.7375C17.5 19.9239 17.7884 20.0161 18.08 19.9968C18.3716 19.9774 18.6464 19.8479 18.8529 19.6325L23.6479 14.633L23.7487 14.5142C23.9276 14.2736 24.0161 13.9732 23.9976 13.6695C23.979 13.3657 23.8547 13.0794 23.6479 12.8644L23.5339 12.7606C23.3029 12.5743 23.0145 12.4821 22.7229 12.5014C22.4313 12.5207 22.1564 12.6502 21.95 12.8656L19.1997 15.7329V1.25417L19.1913 1.10918C19.1572 0.804919 19.017 0.5243 18.7973 0.320613C18.5777 0.116927 18.2938 0.00435674 17.9997 0.0042804Z" fill="white" fill-opacity="0.75"/>
</svg>
