<svg width="24" height="24" viewBox="0 0 24 24" fill="none" xmlns="http://www.w3.org/2000/svg">
<path d="M2 10.7818C2 5.91773 5.95661 2 10.8073 2C15.6571 2 19.6147 5.91773 19.6147 10.7818C19.6166 12.7886 18.9293 14.7339 17.6701 16.2855L21.7372 20.3963C21.9077 20.5748 22.0021 20.8138 22 21.0619C21.9978 21.31 21.8994 21.5474 21.7258 21.7228C21.5522 21.8983 21.3174 21.9978 21.0719 22C20.8264 22.0021 20.5899 21.9067 20.4133 21.7344L16.3378 17.6151C14.7664 18.8797 12.8161 19.5665 10.8073 19.5626C5.95755 19.5626 2 15.6458 2 10.7818ZM10.8073 3.89262C6.96402 3.89262 3.87251 6.99084 3.87251 10.7818C3.87251 14.5727 6.96402 17.67 10.8073 17.67C14.6507 17.67 17.7422 14.5727 17.7422 10.7808C17.7422 6.99084 14.6507 3.89262 10.8073 3.89262Z" fill="white" fill-opacity="0.5"/>
</svg>
