<svg width="90" height="19" viewBox="0 0 90 19" fill="none" xmlns="http://www.w3.org/2000/svg">
<path d="M0 16.12H16V0.12H0V16.12ZM22.0455 15V3.36364H23.108V8.69886H29.7102V3.36364H30.7727V15H29.7102V9.65341H23.108V15H22.0455ZM33.6591 15V6.27273H34.6761V15H33.6591ZM34.1761 4.77273C33.9678 4.77273 33.7898 4.70265 33.642 4.5625C33.4943 4.41856 33.4205 4.24621 33.4205 4.04545C33.4205 3.8447 33.4943 3.67424 33.642 3.53409C33.7898 3.39015 33.9678 3.31818 34.1761 3.31818C34.3845 3.31818 34.5625 3.39015 34.7102 3.53409C34.858 3.67424 34.9318 3.8447 34.9318 4.04545C34.9318 4.24621 34.858 4.41856 34.7102 4.5625C34.5625 4.70265 34.3845 4.77273 34.1761 4.77273ZM42.0611 15V3.36364H43.1236V14.0455H48.669V15H42.0611ZM54.2429 15.1818C53.4891 15.1818 52.8224 14.9905 52.2429 14.608C51.6671 14.2254 51.2164 13.697 50.8906 13.0227C50.5649 12.3447 50.402 11.5625 50.402 10.6761C50.402 9.7822 50.5649 8.99621 50.8906 8.31818C51.2164 7.63636 51.6671 7.10606 52.2429 6.72727C52.8224 6.3447 53.4891 6.15341 54.2429 6.15341C54.9967 6.15341 55.6615 6.3447 56.2372 6.72727C56.813 7.10985 57.2637 7.64015 57.5895 8.31818C57.919 8.99621 58.0838 9.7822 58.0838 10.6761C58.0838 11.5625 57.9209 12.3447 57.5952 13.0227C57.2694 13.697 56.8168 14.2254 56.2372 14.608C55.6615 14.9905 54.9967 15.1818 54.2429 15.1818ZM54.2429 14.2557C54.849 14.2557 55.3622 14.0928 55.7827 13.767C56.2031 13.4413 56.5213 13.0076 56.7372 12.4659C56.9569 11.9242 57.0668 11.3277 57.0668 10.6761C57.0668 10.0246 56.9569 9.42614 56.7372 8.88068C56.5213 8.33523 56.2031 7.89773 55.7827 7.56818C55.3622 7.23864 54.849 7.07386 54.2429 7.07386C53.6406 7.07386 53.1274 7.23864 52.7031 7.56818C52.2827 7.89773 51.9626 8.33523 51.7429 8.88068C51.527 9.42614 51.419 10.0246 51.419 10.6761C51.419 11.3277 51.527 11.9242 51.7429 12.4659C51.9626 13.0076 52.2827 13.4413 52.7031 13.767C53.1236 14.0928 53.6368 14.2557 54.2429 14.2557ZM63.6335 18.4545C63.0388 18.4545 62.518 18.3769 62.071 18.2216C61.6241 18.0701 61.2472 17.8617 60.9403 17.5966C60.6335 17.3314 60.3949 17.0341 60.2244 16.7045L61.054 16.1591C61.179 16.3788 61.3456 16.5947 61.554 16.8068C61.7661 17.0189 62.0407 17.1951 62.3778 17.3352C62.7188 17.4754 63.1373 17.5455 63.6335 17.5455C64.4063 17.5455 65.0294 17.3523 65.5028 16.9659C65.9801 16.5795 66.2188 15.9792 66.2188 15.1648V13.1989H66.1278C66.0104 13.464 65.8419 13.7292 65.6222 13.9943C65.4025 14.2557 65.1146 14.4735 64.7585 14.6477C64.4063 14.822 63.9688 14.9091 63.446 14.9091C62.7491 14.9091 62.1297 14.7367 61.5881 14.392C61.0502 14.0473 60.6259 13.5549 60.3153 12.9148C60.0085 12.2708 59.8551 11.5038 59.8551 10.6136C59.8551 9.73106 60.0047 8.95455 60.304 8.28409C60.607 7.61364 61.0294 7.09091 61.571 6.71591C62.1127 6.34091 62.7434 6.15341 63.4631 6.15341C63.9972 6.15341 64.4403 6.24811 64.7926 6.4375C65.1449 6.62311 65.4271 6.85417 65.6392 7.13068C65.8551 7.4072 66.0237 7.67614 66.1449 7.9375H66.2472V6.27273H67.2358V15.2273C67.2358 15.9659 67.0786 16.5739 66.7642 17.0511C66.4498 17.5284 66.0218 17.8807 65.4801 18.108C64.9384 18.339 64.3229 18.4545 63.6335 18.4545ZM63.5653 13.983C64.1259 13.983 64.6051 13.8485 65.0028 13.5795C65.4006 13.3068 65.7055 12.9167 65.9176 12.4091C66.1297 11.9015 66.2358 11.2973 66.2358 10.5966C66.2358 9.91477 66.1316 9.31061 65.9233 8.78409C65.715 8.25379 65.4119 7.83712 65.0142 7.53409C64.6203 7.22727 64.1373 7.07386 63.5653 7.07386C62.982 7.07386 62.4896 7.23106 62.0881 7.54545C61.6866 7.85985 61.3835 8.28409 61.179 8.81818C60.9744 9.34848 60.8722 9.94129 60.8722 10.5966C60.8722 11.2633 60.9763 11.8523 61.1847 12.3636C61.393 12.8712 61.6979 13.2689 62.0994 13.5568C62.5009 13.8409 62.9896 13.983 63.5653 13.983ZM72.3509 15.1989C71.8243 15.1989 71.3433 15.0966 70.9077 14.892C70.4721 14.6837 70.1255 14.3845 69.8679 13.9943C69.6103 13.6004 69.4815 13.1231 69.4815 12.5625C69.4815 12.1307 69.563 11.767 69.7259 11.4716C69.8887 11.1761 70.1198 10.9337 70.419 10.7443C70.7183 10.5549 71.0724 10.4053 71.4815 10.2955C71.8906 10.1856 72.3414 10.1004 72.8338 10.0398C73.3224 9.97917 73.7353 9.92614 74.0724 9.88068C74.4134 9.83523 74.6728 9.76326 74.8509 9.66477C75.0289 9.56629 75.1179 9.4072 75.1179 9.1875V8.98295C75.1179 8.38826 74.9399 7.92045 74.5838 7.57955C74.2315 7.23485 73.724 7.0625 73.0611 7.0625C72.4323 7.0625 71.919 7.20076 71.5213 7.47727C71.1274 7.75379 70.8509 8.07955 70.6918 8.45455L69.7315 8.10795C69.9285 7.63068 70.2012 7.25 70.5497 6.96591C70.8982 6.67803 71.2884 6.47159 71.7202 6.34659C72.152 6.2178 72.5895 6.15341 73.0327 6.15341C73.366 6.15341 73.7126 6.19697 74.0724 6.28409C74.4361 6.37121 74.7732 6.52273 75.0838 6.73864C75.3944 6.95076 75.6463 7.24811 75.8395 7.63068C76.0327 8.00947 76.1293 8.49053 76.1293 9.07386V15H75.1179V13.6193H75.0554C74.9342 13.8769 74.7543 14.1269 74.5156 14.3693C74.277 14.6117 73.9777 14.8106 73.6179 14.9659C73.258 15.1212 72.8357 15.1989 72.3509 15.1989ZM72.4872 14.2727C73.0251 14.2727 73.491 14.1534 73.8849 13.9148C74.2789 13.6761 74.5819 13.3598 74.794 12.9659C75.0099 12.5682 75.1179 12.1307 75.1179 11.6534V10.392C75.0421 10.464 74.9152 10.5284 74.7372 10.5852C74.563 10.642 74.3603 10.6932 74.1293 10.7386C73.902 10.7803 73.6747 10.8163 73.4474 10.8466C73.2202 10.8769 73.0156 10.9034 72.8338 10.9261C72.3414 10.9867 71.9209 11.0814 71.5724 11.2102C71.224 11.339 70.9569 11.517 70.7713 11.7443C70.5857 11.9678 70.4929 12.2557 70.4929 12.608C70.4929 13.1383 70.6823 13.5492 71.0611 13.8409C71.4399 14.1288 71.9152 14.2727 72.4872 14.2727ZM79.831 9.54545V15H78.8196V6.27273H79.8026V7.64205H79.8935C80.098 7.19508 80.4162 6.83712 80.848 6.56818C81.2836 6.29545 81.8215 6.15909 82.4616 6.15909C83.0488 6.15909 83.5639 6.2822 84.0071 6.52841C84.4541 6.77083 84.8007 7.12879 85.0469 7.60227C85.2969 8.07576 85.4219 8.6572 85.4219 9.34659V15H84.4105V9.40909C84.4105 8.69318 84.2098 8.12689 83.8082 7.71023C83.4105 7.29356 82.8764 7.08523 82.206 7.08523C81.7476 7.08523 81.3404 7.18371 80.9844 7.38068C80.6283 7.57765 80.3461 7.86174 80.1378 8.23295C79.9332 8.60038 79.831 9.03788 79.831 9.54545ZM89.767 13.4091L89.6648 14.017C89.6004 14.4261 89.5095 14.8769 89.392 15.3693C89.2746 15.8617 89.1534 16.3295 89.0284 16.7727C88.9034 17.2159 88.7955 17.572 88.7045 17.8409H87.9261C87.9754 17.5833 88.0379 17.2557 88.1136 16.858C88.1932 16.4602 88.2746 16.0189 88.358 15.5341C88.4413 15.053 88.517 14.5568 88.5852 14.0455L88.6648 13.4091H89.767Z" fill="white" fill-opacity="0.75"/>
</svg>
